<svg width="50" height="50" viewBox="0 0 50 50" fill="none" xmlns="http://www.w3.org/2000/svg">
<path d="M19.9007 23.551C19.4515 23.1018 18.7015 23.1018 18.2503 23.6018L12.8013 29.3498C12.3521 29.799 12.3521 30.5002 12.8013 30.9494L18.2503 36.6994C18.5003 36.9494 18.8011 37.049 19.0999 37.049C19.4007 37.049 19.6995 36.9494 19.9007 36.7483C20.3499 36.299 20.4007 35.549 19.9515 35.0978L15.3011 30.1486L19.9515 25.1994C20.4007 24.7502 20.3499 24.0003 19.9007 23.551Z" fill="#3EF2B2"/>
<path d="M31.7501 23.5995C31.3008 23.1502 30.5509 23.0995 30.0997 23.5487C29.6504 23.9979 29.5997 24.7479 30.0489 25.1991L34.6993 30.1483L30.0489 35.0975C29.5997 35.5467 29.6485 36.2967 30.0997 36.7479C30.3497 36.9471 30.5997 37.0487 30.9005 37.0487C31.2012 37.0487 31.5001 36.9491 31.7501 36.6991L37.1991 30.9491C37.6483 30.4998 37.6483 29.7987 37.1991 29.3495L31.7501 23.5995Z" fill="#3EF2B2"/>
<path d="M27.0996 22.051C26.4492 21.9006 25.8496 22.2502 25.6504 22.9006L22.0996 36.8496C21.9492 37.5 22.2988 38.0996 22.9492 38.2988C23.0488 38.2988 23.1484 38.3496 23.25 38.3496C23.75 38.3496 24.25 38 24.4004 37.4492L27.9004 23.5002C28.0996 22.8498 27.6992 22.1994 27.0996 22.051Z" fill="#3EF2B2"/>
<path d="M44.1991 5.75H5.80056C3.30056 5.75 1.24976 7.8008 1.24976 10.3008V39.7498C1.24976 42.2498 3.30056 44.3006 5.80056 44.3006H44.2496C46.7496 44.3006 48.8004 42.2498 48.8004 39.7498V10.3008C48.7496 7.8008 46.6991 5.75 44.1991 5.75ZM5.80056 8.0996H44.2496C45.4488 8.0996 46.4488 9.0996 46.4488 10.2988V16.0488L3.59926 16.0508V10.3008C3.59926 9.05075 4.59941 8.0996 5.80056 8.0996ZM44.1991 41.9006H5.80056C4.60136 41.9006 3.60136 40.9006 3.60136 39.7014L3.5994 18.4004H46.4004V39.7014C46.4004 40.9495 45.4002 41.9006 44.1991 41.9006Z" fill="#3EF2B2"/>
<path d="M9.80103 12.051C9.80103 14.3166 6.40063 14.3166 6.40063 12.051C6.40063 9.78344 9.80103 9.78344 9.80103 12.051Z" fill="#3EF2B2"/>
<path d="M14.9006 12.051C14.9006 14.3166 11.5002 14.3166 11.5002 12.051C11.5002 9.78344 14.9006 9.78344 14.9006 12.051Z" fill="#3EF2B2"/>
<path d="M20 12.051C20 14.3166 16.5996 14.3166 16.5996 12.051C16.5996 9.78344 20 9.78344 20 12.051Z" fill="#3EF2B2"/>
<path d="M33.551 13.25H41.102C41.7524 13.25 42.3012 12.6992 42.3012 12.0508C42.3012 11.4004 41.7504 10.8516 41.102 10.8516L33.551 10.8496C32.9006 10.8496 32.3518 11.4004 32.3518 12.0488C32.4006 12.6992 32.9007 13.25 33.551 13.25Z" fill="#3EF2B2"/>
</svg>
