<svg width="50" height="50" viewBox="0 0 50 50" fill="none" xmlns="http://www.w3.org/2000/svg">
<path d="M4.68943 25.332C4.68943 25.3593 4.707 25.3847 4.70896 25.4121V25.4101C4.75193 27.5957 5.15036 29.7597 5.88866 31.8161C5.90038 31.8591 5.88866 31.904 5.90819 31.947C5.96678 32.1013 6.04295 32.2477 6.1035 32.4021C6.24803 32.7692 6.40233 33.1247 6.56639 33.4822C6.70115 33.7712 6.83592 34.0642 6.9824 34.3493C7.16404 34.697 7.36131 35.0329 7.5625 35.3708C7.72656 35.6462 7.88477 35.9236 8.06055 36.1892C8.26953 36.5037 8.49805 36.8045 8.72265 37.1052V37.1032C9.33595 37.945 10.0136 38.738 10.748 39.4763C10.7754 39.5036 10.8105 39.5115 10.8398 39.5368C12.9453 41.5798 15.4668 43.1423 18.2323 44.1208C18.2714 44.1462 18.3105 44.1677 18.3495 44.1892C18.4784 44.2341 18.6132 44.2654 18.7441 44.3083C18.9316 44.3689 19.1191 44.4236 19.3085 44.4783C19.7245 44.5994 20.1425 44.7068 20.5585 44.8005C20.7675 44.8455 20.9745 44.8923 21.1835 44.9314C21.621 45.0154 22.0605 45.0798 22.5038 45.1404C22.6952 45.1638 22.8847 45.1951 23.078 45.2107C23.703 45.2712 24.3495 45.3083 24.9921 45.3083L24.994 45.3103C32.25 45.3103 38.957 41.4392 42.584 35.1543C46.2129 28.8693 46.2129 21.1268 42.584 14.8418C38.9571 8.55679 32.25 4.68579 24.994 4.68579C24.1307 4.68579 23.4315 5.38499 23.4315 6.24829C23.4315 7.11159 24.1307 7.81079 24.994 7.81079C31.1345 7.81079 36.8085 11.0862 39.879 16.4048C42.9493 21.7233 42.9493 28.2738 39.879 33.5923C36.8087 38.9108 31.135 42.1863 24.994 42.1863C24.4452 42.1863 23.9061 42.155 23.371 42.1023C23.2128 42.0886 23.0565 42.0632 22.8983 42.0437C22.5155 41.9988 22.1347 41.9421 21.7557 41.8679C21.5917 41.8367 21.4256 41.8015 21.2616 41.7644C20.8866 41.6804 20.5174 41.5867 20.1542 41.4793C20.0077 41.4382 19.8651 41.3953 19.7206 41.3504C16.3143 40.2371 13.3376 38.0906 11.2091 35.2099C11.0274 34.9657 10.8419 34.7274 10.6759 34.4716C10.5099 34.2177 10.3731 33.9813 10.2267 33.7333C10.0782 33.4852 9.9122 33.2001 9.76767 32.9247C9.62314 32.6493 9.50986 32.4032 9.38877 32.1395C9.26767 31.8758 9.13681 31.5731 9.02158 31.286C7.29893 26.9501 7.42198 22.0985 9.36337 17.8545C9.72079 17.0694 9.37509 16.1416 8.58992 15.7842C7.80477 15.4248 6.87702 15.7705 6.51962 16.5557C5.30477 19.2042 4.67977 22.0867 4.68757 25.0012L4.68943 25.332Z" fill="#F86919"/>
<path d="M17.7499 6.02152C15.6366 6.82622 13.6738 7.98247 11.9434 9.43947C11.2833 9.99612 11.1993 10.9824 11.7559 11.6426C12.3106 12.3027 13.2989 12.3867 13.959 11.832C15.42 10.5996 17.0782 9.62302 18.8653 8.94142C19.6348 8.61134 20.0059 7.73047 19.7071 6.94922C19.4082 6.16602 18.545 5.75782 17.75 6.02537L17.7499 6.02152Z" fill="#F86919"/>
<path d="M25 15.1035C24.1367 15.1035 23.4375 15.8047 23.4375 16.666V27.084C23.4375 27.9454 24.1367 28.6465 25 28.6465C25.8633 28.6465 26.5625 27.9454 26.5625 27.084V16.666C26.5625 15.8047 25.8633 15.1035 25 15.1035Z" fill="#F86919"/>
<path d="M27.084 33.334C27.084 36.1113 22.916 36.1113 22.916 33.334C22.916 30.5547 27.084 30.5547 27.084 33.334Z" fill="#F86919"/>
</svg>
