<svg width="50" height="50" viewBox="0 0 50 50" fill="none" xmlns="http://www.w3.org/2000/svg">
<path d="M38.7205 35.7796L34.9998 30.1996C34.9803 30.18 34.9803 30.139 34.9608 30.1195L29.9998 22.6995V10.0005H30.0194C30.5721 10.0005 31.0194 9.55322 31.0194 9.00049C31.0194 8.44775 30.5721 8.00049 30.0194 8.00049H19.9804C19.4276 8.00049 18.9804 8.44775 18.9804 9.00049C18.9804 9.55322 19.4276 10.0005 19.9804 10.0005H19.9999V22.6995L15.4198 29.5805L11.2792 35.7795C10.4608 37.006 10.3846 38.5842 11.078 39.883C11.7733 41.1838 13.1249 41.9982 14.5995 42.0002H35.4005C36.8751 41.9982 38.2267 41.1838 38.922 39.883C39.6154 38.5841 39.5389 37.0061 38.7205 35.7796ZM21.8395 23.5591V23.561C21.9431 23.3911 21.9997 23.1977 21.9997 23.0005V10.0005H27.9997V12.0005H26.9997C26.4469 12.0005 25.9997 12.4477 25.9997 13.0005C25.9997 13.5532 26.447 14.0005 26.9997 14.0005H27.9997V16.0005H26.9997C26.4469 16.0005 25.9997 16.4477 25.9997 17.0005C25.9997 17.5532 26.447 18.0005 26.9997 18.0005H27.9997V20.0005H26.9997C26.4469 20.0005 25.9997 20.4477 25.9997 21.0005C25.9997 21.5532 26.447 22.0005 26.9997 22.0005H27.9997V23.0005C27.9997 23.1977 28.0563 23.3911 28.1598 23.561L32.2594 29.7015V29.6996C30.1911 29.7582 28.1383 30.0941 26.1599 30.6996C23.322 31.4613 20.3004 31.1253 17.6989 29.7601L21.8395 23.5591ZM37.16 38.9401C36.8143 39.5905 36.1366 39.9987 35.4003 40.0006H14.5993C13.8629 39.9987 13.1852 39.5905 12.8395 38.9401C12.4802 38.2975 12.5192 37.5045 12.9391 36.901L16.5797 31.44C18.6344 32.526 20.9157 33.1099 23.2397 33.1412C24.4331 33.147 25.6186 32.9712 26.7593 32.6197C28.9663 31.94 31.271 31.6236 33.5798 31.6802L37.0602 36.9007C37.4802 37.5042 37.5194 38.2975 37.16 38.9401ZM32.705 36.3131C32.7265 37.0377 32.4511 37.7409 31.9452 38.2604C31.4394 38.7799 30.7441 39.0748 30.0194 39.0748C29.2929 39.0748 28.5975 38.7799 28.0917 38.2604C27.5858 37.7408 27.3124 37.0377 27.3319 36.3131C27.3319 35.7604 27.7792 35.3131 28.3319 35.3131C28.8847 35.3131 29.3319 35.7604 29.3319 36.3131C29.3319 36.5905 29.4979 36.8424 29.7558 36.9498C30.0136 37.0572 30.3085 36.9986 30.5058 36.8014C30.703 36.6041 30.7616 36.3072 30.6542 36.0494C30.5487 35.7936 30.2968 35.6256 30.0175 35.6276C29.4648 35.6276 29.0175 35.1783 29.0175 34.6276C29.0175 34.0748 29.4648 33.6276 30.0175 33.6276C31.5019 33.6276 32.703 34.8287 32.705 36.3131ZM17.6989 34.3014C17.8942 34.4811 18.0036 34.735 17.9997 35.0006C18.0036 35.1315 17.9763 35.2623 17.9196 35.3815C17.8767 35.5065 17.8005 35.6159 17.6989 35.6998C17.5251 35.9323 17.2595 36.0768 16.9704 36.0983C16.6814 36.1178 16.3982 36.0123 16.1931 35.8073C15.988 35.6022 15.8825 35.319 15.9021 35.0299C15.9236 34.7408 16.0681 34.4752 16.3005 34.3014C16.6892 33.9186 17.3102 33.9186 17.6989 34.3014ZM21.6989 36.3014C21.8942 36.4811 22.0036 36.735 21.9997 37.0006C22.0017 37.1315 21.9743 37.2623 21.9196 37.3815C21.8767 37.5065 21.8005 37.6159 21.6989 37.6998C21.5251 37.9323 21.2595 38.0768 20.9704 38.0983C20.6814 38.1178 20.3982 38.0123 20.1931 37.8073C19.988 37.6022 19.8825 37.319 19.9021 37.0299C19.9236 36.7408 20.0681 36.4752 20.3005 36.3014C20.6892 35.9186 21.3102 35.9186 21.6989 36.3014ZM33.6989 32.3014C33.99 32.5846 34.0798 33.0163 33.9255 33.3932C33.7712 33.7682 33.4059 34.0143 32.9997 34.0143C32.5934 34.0143 32.2282 33.7682 32.0739 33.3932C31.9196 33.0163 32.0094 32.5846 32.3005 32.3014C32.6891 31.9186 33.3102 31.9186 33.6989 32.3014Z" fill="#F070FC"/>
</svg>
