<svg width="50" height="50" viewBox="0 0 50 50" fill="none" xmlns="http://www.w3.org/2000/svg">
<path d="M16.9609 31.715C19.6249 31.717 22.2439 31.0099 24.5449 29.6642L26.7343 31.8537L26.5898 31.9982V32.0002C25.5859 33.006 25.5859 34.6349 26.5898 35.6408L37.6408 46.6993C38.7932 47.8594 40.3654 48.5079 42.0002 48.5001C43.6448 48.5001 45.2209 47.8458 46.3811 46.6798C48.7776 44.2794 48.7776 40.3908 46.3811 37.9903L35.3011 26.9298C34.8186 26.4474 34.1624 26.1739 33.4808 26.1739C32.7972 26.1739 32.1429 26.4474 31.6605 26.9298L31.5159 27.0743L29.5003 25.0392C31.1917 22.5548 32.0921 19.6172 32.0863 16.6097C32.0863 12.6038 30.4964 8.76016 27.6644 5.92616C24.8323 3.09021 20.9904 1.49841 16.9829 1.49451C12.977 1.49256 9.13338 3.08241 6.29738 5.91441C3.46338 8.74451 1.86768 12.5864 1.86573 16.5939C1.86182 20.5998 3.45168 24.4434 6.28173 27.2794C9.11178 30.1154 12.9534 31.7111 16.9609 31.715ZM32.2264 29.215L33.076 28.3654H33.074C33.1815 28.258 33.3279 28.1955 33.4803 28.1955C33.6326 28.1955 33.7772 28.258 33.8846 28.3654L44.9391 39.4004C46.566 41.0254 46.568 43.6602 44.943 45.2869C43.318 46.9139 40.6813 46.9159 39.0545 45.2889L28 34.2304C27.7773 34.0058 27.7773 33.6445 28 33.4199L28.8496 32.5703L32.2264 29.215ZM30.0994 28.5002L28.1443 30.4553L26.2303 28.5413H26.2557C26.6092 28.2639 26.9432 27.9748 27.2557 27.6721L27.4061 27.5178C27.6756 27.258 27.9354 27.0178 28.1815 26.717L28.2264 26.6721L30.0994 28.5002ZM16.9609 3.5002C20.4355 3.50606 23.7654 4.88885 26.2224 7.3459C28.6795 9.80295 30.0603 13.1349 30.0642 16.6094C30.074 19.4805 29.1306 22.2734 27.3806 24.5509C26.949 25.1192 26.4705 25.6505 25.949 26.1407L25.8982 26.1954H25.9002C25.3553 26.7032 24.7674 27.1622 24.1443 27.5704C20.6814 29.8439 16.3473 30.3458 12.4568 28.9259C8.56421 27.506 5.57381 24.3302 4.38831 20.3594C3.20276 16.3906 3.96448 12.0939 6.44106 8.77339C8.91761 5.45309 12.8184 3.4982 16.9609 3.5002Z" fill="#63A8FF"/>
<path d="M26.0858 17.5C25.9256 19.2012 25.2889 20.8223 24.2498 22.1797C23.9139 22.6192 23.9979 23.2461 24.4373 23.5821C24.8768 23.918 25.5037 23.834 25.8397 23.3946C27.1073 21.7403 27.8846 19.7618 28.0799 17.6856C28.1307 17.1328 27.7245 16.6446 27.1717 16.5918C26.6209 16.541 26.1307 16.9473 26.0799 17.5H26.0858Z" fill="#63A8FF"/>
<path d="M9.99984 10.6505C12.0897 8.2052 15.3083 7.0333 18.4823 7.5626C21.6562 8.09385 24.3183 10.2481 25.4998 13.2401C25.576 13.5135 25.7655 13.7421 26.0194 13.869C26.2753 13.994 26.5721 14.0057 26.8358 13.9003C27.0995 13.7948 27.3065 13.5819 27.4022 13.3143C27.4998 13.0467 27.4784 12.7499 27.3456 12.4999C25.9042 8.85725 22.66 6.23635 18.7966 5.59185C14.9333 4.9473 11.0156 6.3731 8.47055 9.34965C8.25766 9.54105 8.13657 9.81644 8.14047 10.1016C8.14243 10.3887 8.26743 10.6602 8.48422 10.8477C8.70102 11.0352 8.98812 11.1211 9.27132 11.084C9.55648 11.045 9.81037 10.8887 9.97052 10.6504L9.99984 10.6505Z" fill="#63A8FF"/>
<path d="M39.3144 43.8241C39.7187 44.1776 40.33 44.1483 40.6972 43.7596C41.0664 43.3709 41.0625 42.7596 40.6894 42.3749L35.1894 37.1894C35 36.9941 34.7382 36.8847 34.4668 36.8866C34.1933 36.8886 33.9336 36.9999 33.7461 37.1991C33.5586 37.3964 33.4609 37.662 33.4726 37.9335C33.4863 38.205 33.6093 38.4609 33.8144 38.6406L39.3144 43.8241Z" fill="#63A8FF"/>
</svg>
