<svg width="50" height="50" viewBox="0 0 50 50" fill="none" xmlns="http://www.w3.org/2000/svg">
<path d="M40.0001 4.5C33.3906 4.5 26.9416 8.0332 21.7501 12.969C20.5821 14.0784 19.4845 15.2659 18.4532 16.5003H11.0002C10.9689 16.4983 10.9377 16.4983 10.9064 16.5003C10.6388 16.5217 10.3908 16.6526 10.2189 16.8596L5.70332 22.4066C5.52168 22.6293 5.44356 22.9203 5.49238 23.2055C5.53926 23.4906 5.70723 23.7406 5.95332 23.891L11.9223 27.5004C11.5786 28.4223 11.27 29.3403 11.0317 30.2504C10.9458 30.5922 11.0473 30.9555 11.2973 31.2035L18.7974 38.7035C19.0454 38.9535 19.4087 39.0551 19.7505 38.9692C20.6548 38.7328 21.5708 38.436 22.4849 38.0942L26.0943 44.0317C26.2427 44.2797 26.4907 44.4516 26.7759 44.5024C27.0611 44.5531 27.354 44.4789 27.5787 44.2973L33.1257 39.766C33.3581 39.5805 33.4967 39.2992 33.5007 39.0004V31.5474C34.7351 30.5162 35.9226 29.4185 37.0319 28.2505C41.9675 23.059 45.5009 16.61 45.5009 10.0005C45.5009 8.48688 45.4814 6.99468 44.9384 5.62553C44.8368 5.36772 44.6337 5.16459 44.3759 5.06303C43.0068 4.52008 41.5145 4.50052 40.0009 4.50052L40.0001 4.5ZM40.0001 6.5C41.2598 6.5 42.3126 6.58789 43.172 6.82813C43.4122 7.68753 43.5001 8.74023 43.5001 10C43.5001 15.8905 40.2833 21.9415 35.5941 26.875C31.0433 31.6621 25.1351 35.3125 19.7501 36.844L13.1561 30.25C14.6873 24.865 18.3376 18.957 23.1251 14.406C28.0587 9.71658 34.1096 6.5 40.0001 6.5ZM35.0001 10.5C32.5274 10.5 30.5001 12.5274 30.5001 15C30.5001 17.4727 32.5274 19.5 35.0001 19.5C37.4727 19.5 39.5001 17.4727 39.5001 15C39.5001 12.5274 37.4727 10.5 35.0001 10.5ZM34.7501 12.5C34.8341 12.4922 34.9122 12.5 35.0001 12.5C36.3927 12.5 37.5001 13.6074 37.5001 15C37.5001 16.3926 36.3927 17.5 35.0001 17.5C33.6075 17.5 32.5001 16.3926 32.5001 15C32.5001 13.6953 33.4805 12.627 34.7501 12.5ZM11.4691 18.5H16.8751C15.1876 20.7852 13.7579 23.1953 12.672 25.625L7.98447 22.7813L11.4691 18.5ZM9.87532 32.9845C9.65462 33.0158 9.45149 33.1212 9.29722 33.2814L6.29722 36.2814C6.10191 36.4669 5.99058 36.7228 5.98668 36.9904C5.98277 37.2599 6.08629 37.5177 6.27574 37.7091C6.46519 37.9005 6.723 38.008 6.99059 38.006C7.26012 38.006 7.51599 37.8966 7.70349 37.7033L10.7035 34.7033C11.0218 34.4044 11.1097 33.9337 10.9203 33.5392C10.7308 33.1466 10.3069 32.922 9.87532 32.9845ZM31.5003 33.1251V38.5311L27.2191 42.0155L24.3753 37.3124C26.8031 36.2265 29.2171 34.8107 31.5003 33.1251ZM12.8753 35.9845C12.6546 36.0158 12.4515 36.1212 12.2972 36.2814L4.79722 43.7814C4.60191 43.9669 4.49058 44.2228 4.48668 44.4904C4.48277 44.7599 4.58629 45.0178 4.77574 45.2092C4.96519 45.4006 5.223 45.508 5.49059 45.506C5.76012 45.506 6.01599 45.3967 6.20349 45.2033L13.7035 37.7033C14.0218 37.4045 14.1097 36.9337 13.9203 36.5392C13.7308 36.1467 13.3069 35.922 12.8753 35.9845ZM15.8753 38.9845C15.6546 39.0158 15.4515 39.1212 15.2972 39.2814L12.2972 42.2814C12.1019 42.4669 11.9906 42.7228 11.9867 42.9904C11.9828 43.2599 12.0863 43.5178 12.2757 43.7092C12.4652 43.9006 12.723 44.008 12.9906 44.006C13.2601 44.006 13.516 43.8967 13.7035 43.7033L16.7035 40.7033C17.0218 40.4045 17.1097 39.9337 16.9203 39.5392C16.7308 39.1467 16.3069 38.922 15.8753 38.9845Z" fill="#FFD439"/>
</svg>
