<svg width="50" height="50" viewBox="0 0 50 50" fill="#07EBF9" xmlns="http://www.w3.org/2000/svg">
<path d="M20.2795 38.625L27.625 44.625C27.918 44.8691 28.2891 45.0039 28.6699 45.0058C28.9101 45.0058 29.1484 44.9511 29.3652 44.8457C30.0273 44.5078 30.4375 43.8222 30.4199 43.0801V25.5451C30.416 25.2833 30.4941 25.0255 30.6445 24.8107L40.5 11.4047C41.1543 11.0121 41.5742 10.3226 41.625 9.56092C41.6152 5.96132 31.17 5.00037 25 5.00037C18.83 5.00037 8.38501 5.96132 8.38501 9.56092C8.43384 10.3207 8.84986 11.0082 9.50026 11.4047L19.3558 24.8107C19.5042 25.0255 19.5823 25.2833 19.5804 25.5451V37.0801C19.5726 37.6738 19.8283 38.2402 20.2795 38.625ZM10.2795 9.57996C10.5647 8.65026 15.8695 6.90416 24.9905 6.90416C34.1095 6.90416 39.336 8.61901 39.6955 9.55846C39.3459 10.4999 34.051 12.2206 25 12.2206C15.949 12.2206 10.574 10.4999 10.289 9.57996H10.2795ZM12.9299 12.8554C16.5002 13.8046 21.4299 14.121 24.9904 14.121C28.551 14.121 33.4904 13.8065 37.0509 12.8554L29.1094 23.6854C28.7129 24.2244 28.5 24.8748 28.5 25.5448V42.8903L21.5 37.1638C21.4922 37.1364 21.4922 37.1071 21.5 37.0798V25.5448C21.502 24.8768 21.2949 24.2264 20.9043 23.6854L12.9299 12.8554Z" fill="#07EBF9"/>
</svg>
